<?xml version="1.0" encoding="iso-8859-1"?>
<!DOCTYPE svg PUBLIC "-//W3C//DTD SVG 1.0//EN"
 "http://www.w3.org/TR/2001/REC-SVG-20010904/DTD/svg10.dtd">

<svg xmlns="http://www.w3.org/2000/svg" 
     xmlns:xlink="http://www.w3.org/1999/xlink" 
     width="100%" height="100%"> 

<defs>
  <filter id="turbFilter4" in="SourceImage" 
           filterUnits="objectBoundingBox">
      <feTurbulence baseFrequency="0.05" numOctaves="1" 
                    result="turbulenceOut1"/> 
        <feDisplacementMap in="SourceGraphic" in2="turbulenceOut1" 
                           xChannelSelector="B" yChannelSelector="B"
                           scale="4"/> 

      <feDiffuseLighting in="SourceGraphic" 
                         diffuseConstant="2" 
                         surfaceScale="20" 
                         style="lighting-color:#FFFFCC;">
         <feSpotLight x="30" y="10" z="80" 
                      pointsAtX="90" pointsAtY="30" pointsAtZ="0" 
                      specularExponent="1"/>
     </feDiffuseLighting>
   </filter>

  <radialGradient id="blueCircle" 
                  gradientUnits="objectBoundingBox"
                  fx="30%" fy="30%">
    <stop offset="0%"   style="stop-color:#FFFFFF"/>
    <stop offset="40%"  style="stop-color:#0000AA"/>
    <stop offset="100%" style="stop-color:#000066"/>
  </radialGradient>
   
  <circle id="3DBlueCircle" cx="0" cy="0" r="100" 
          style="fill:url(#blueCircle)"/>

  <path id="vStripedArc1"
        d="m0,-100 a200,200 0 0,1 0,100
                   a200,200 0 0,0 0,100"
        stroke-dasharray="2 2 2 2"
        stroke="red" stroke-width="8"/>

  <path id="vStripedArc2"
        d="m0,-100 a100,100 0 0,1 0,100
                   a100,100 0 0,0 0,100"
        stroke-dasharray="2 2 2 2"
        stroke="green" stroke-width="4"/>

  <path id="vStripedArc3"
        d="m0,-100 a80,80 0 0,1 0,100
                   a80,80 0 0,0 0,100"
        stroke-dasharray="2 2 2 2"
        stroke="white" stroke-width="8"/>

  <path id="vStripedArc4"
        d="m0,-100 a60,60 0 0,1 0,100
                   a60,60 0 0,0 0,100"
        stroke-dasharray="2 2 2 2"
        stroke="yellow" stroke-width="4"/>

  <path id="vStripedArc5"
        d="m0,-100 a55,55 0 0,1 0,100
                   a55,55 0 0,0 0,100"
        stroke-dasharray="2 2 2 2"
        stroke="red" stroke-width="8"/>

  <path id="vStripedArc6"
        d="m0,-100 a51,51 0 0,1 0,100
                   a51,51 0 0,0 0,100"
        stroke-dasharray="2 2 2 2"
        stroke="green" stroke-width="4"/>

  <path id="vStripedArc7"
        d="m0,-100 a50,50 0 0,1 0,100
                   a50,50 0 0,0 0,100"
        stroke-dasharray="2 2 2 2"
        stroke="blue" stroke-width="8"/>
</defs>

<g id="gc" transform="translate(120,120) scale(2,2)" 
   filter="url(#turbFilter4)">  
   <use xlink:href="#3DBlueCircle" x="0" y="0"/>

   <use xlink:href="#vStripedArc7" x="0" y="0"/>
   <use xlink:href="#vStripedArc6" x="0" y="0"/>
   <use xlink:href="#vStripedArc5" x="0" y="0"/>
   <use xlink:href="#vStripedArc4" x="0" y="0"/>
   <use xlink:href="#vStripedArc3" x="0" y="0"/>
   <use xlink:href="#vStripedArc2" x="0" y="0"/>
   <use xlink:href="#vStripedArc1" x="0" y="0"/>
</g>
</svg>
