<?xml version="1.0" encoding="iso-8859-1"?>
<!DOCTYPE svg PUBLIC "-//W3C//DTD SVG 20001102//EN" 
 "http://www.w3.org/TR/2000/CR-SVG-20001102/DTD/svg-20001102.dtd"> 

<svg xmlns="http://www.w3.org/2000/svg" 
     xmlns:xlink="http://www.w3.org/1999/xlink"> 
<defs>
  <filter id="turbFilter4" in="SourceImage" 
           filterUnits="objectBoundingBox">
      <feTurbulence baseFrequency="0.25" numOctaves="3" 
                    result="turbulenceOut1"/> 
        <feDisplacementMap in="SourceGraphic" in2="turbulenceOut1" 
                           xChannelSelector="B" yChannelSelector="B"
                           scale="100"/> 
   </filter>

     <pattern id="checkerPattern1" 
              width="10" height="10"
              patternUnits="userSpaceOnUse">
        <rect fill="blue"
              x="0"  y="0"  width="5" height="5"/> 
        <rect fill="red"
              x="5" y="0"  width="5" height="5"/> 
        <rect fill="red"
              x="0"  y="5" width="5" height="5"/> 
        <rect fill="blue"
              x="5" y="5" width="5" height="5"/> 
     </pattern>

     <pattern id="checkerPattern2" 
              width="10" height="10"
              patternUnits="userSpaceOnUse">
        <rect fill="red"
              x="0"  y="0"  width="5" height="5"/> 
        <rect fill="yellow"
              x="5" y="0"  width="5" height="5"/> 
        <rect fill="yellow"
              x="0"  y="5" width="5" height="5"/> 
        <rect fill="red"
              x="5" y="5" width="5" height="5"/> 
     </pattern>

     <radialGradient id="blueCircle" 
                     gradientUnits="objectBoundingBox"
                     fx="30%" fy="30%">
       <stop offset="0%"   style="stop-color:#FFFFFF"/>
       <stop offset="40%"  style="stop-color:#0000AA"/>
       <stop offset="100%" style="stop-color:#000066"/>
     </radialGradient>

     <radialGradient id="redCircle" 
                     gradientUnits="objectBoundingBox"
                     fx="30%" fy="30%">
       <stop offset="0%"   style="stop-color:#FFFFFF"/>
       <stop offset="40%"  style="stop-color:#AA0000"/>
       <stop offset="100%" style="stop-color:#660000"/>
     </radialGradient>

   <g id="arc1">
     <path id="outerArc"
           d="m0,0 C50,-125 75,0 0,100"
           fill="url(#blueCircle)"
           stroke="blue" stroke-width="4"/>

     <path id="innerArc"
           d="m0,0 C50,-75 25,0 0,100"
           fill="white"
           stroke="blue" stroke-width="4"/>
   </g>

   <g id="arcSwirl">
     <path id="outerArc"
           d="m0,0 a25,25 0 0,1 50,0
                   a25,25 0 0,1 50,0
                   C50,-125 75,0 0,100"
           fill="url(#blueCircle)"
           stroke="blue" stroke-width="4"/>

     <path id="innerArc"
           d="m0,0 C50,-75 25,0 0,100"
           fill="white"
           stroke="blue" stroke-width="4"/>
   </g>

   <g id="cBezierLeaf">
     <path id="outerArc"
           d="m0,0 C100,-250 150,0 0,200"
           fill="url(#blueCircle)"
           stroke="blue" stroke-width="4"/>

     <path id="innerArc"
           d="m0,0 C100,-150   50,0 0,200"
           fill="white"
           stroke="blue" stroke-width="4"/>
   </g>

   <g id="cBezierLeafCB">
     <path id="outerArc"
           d="m0,0 C100,-250 150,0 0,200"
           fill="url(#blueCircle)"
           stroke="blue" stroke-width="4"/>

     <path id="innerArc"
           d="m0,0 C100,-150   50,0 0,200"
           opacity=".5"
           fill="url(#checkerPattern1)"
           stroke="blue" stroke-width="4"/>
   </g>
</defs>

<g id="leaf" transform="translate(0,150) scale(1.5,1.5)"> 
   <use xlink:href="#arcSwirl" x="50" y="0"/>
</g>

<g id="leaf2" transform="translate(125,175) scale(.5,.5)" 
   filter="url(#turbFilter4)">  
   <use xlink:href="#cBezierLeaf"   x="50" y="0"/>
   <use xlink:href="#cBezierLeafCB" x="50" y="0"/>
</g>
</svg>

