<?xml version="1.0" encoding="iso-8859-1"?>
<!DOCTYPE svg PUBLIC "-//W3C//DTD SVG 20010904//EN" 
  "http://www.w3.org/TR/2001/REC-SVG-20010904/DTD/svg10.dtd">

<svg xmlns="http://www.w3.org/2000/svg" 
     xmlns:xlink="http://www.w3.org/1999/xlink"> 
 <defs>
  <filter id="turbFilter4" in="SourceImage" 
           filterUnits="objectBoundingBox">
      <feTurbulence baseFrequency="0.25" numOctaves="4" 
                    result="turbulenceOut1"/> 
        <feDisplacementMap in="SourceGraphic" in2="turbulenceOut1" 
                           xChannelSelector="B" yChannelSelector="B"
                           scale="20"/> 
   </filter>

     <radialGradient id="blueCircle" 
                     gradientUnits="objectBoundingBox"
                     fx="30%" fy="30%">
       <stop offset="0%"   style="stop-color:#FFFFFF"/>
       <stop offset="40%"  style="stop-color:#0000AA"/>
       <stop offset="100%" style="stop-color:#000066"/>
     </radialGradient>
      
  <pattern id="checkerPattern1" 
           width="10" height="10"
           patternUnits="userSpaceOnUse">
     <rect fill="blue"
           x="0"  y="0"  width="5" height="5"/> 
     <rect fill="red"
           x="5" y="0"  width="5" height="5"/> 
     <rect fill="red"
           x="0"  y="5" width="5" height="5"/> 
     <rect fill="blue"
           x="5" y="5" width="5" height="5"/> 
  </pattern>

  <pattern id="checkerPattern2" 
           width="10" height="10"
           patternUnits="userSpaceOnUse">
     <rect fill="red"
           x="0"  y="0"  width="5" height="5"/> 
     <rect fill="yellow"
           x="5" y="0"  width="5" height="5"/> 
     <rect fill="yellow"
           x="0"  y="5" width="5" height="5"/> 
     <rect fill="red"
           x="5" y="5" width="5" height="5"/> 
  </pattern>

  <pattern id="checkerPattern3" 
           width="10" height="10"
           patternUnits="userSpaceOnUse">
     <rect fill="yellow"
           x="0"  y="0"  width="5" height="5"/> 
     <rect fill="black"
           x="5" y="0"  width="5" height="5"/> 
     <rect fill="black"
           x="0"  y="5" width="5" height="5"/> 
     <rect fill="yellow"
           x="5" y="5" width="5" height="5"/> 
  </pattern>

  <path id="topFace"
        d="m0,0 l0,-80 
                a200,200 0 0,0 100,50
                l200,-120 -300,70"
        fill="url(#blueCircle)" 
        stroke="blue" stroke-width="2"/>

  <path id="topFaceCB"
        d="m0,0 l0,-80 
                a200,200 0 0,0 100,50
                l200,-120 -300,70"
        opacity=".5"
        fill="url(#checkerPattern2)" 
        stroke="blue" stroke-width="2"/>

  <path id="rightFace"
        d="m100,-30 l200,-120 
                    l-200,200 
                    a200,200 0 0,1 0,-80"
        fill="url(#blueCircle)" 
        stroke="blue" stroke-width="2"/>

  <path id="rightFaceCB"
        d="m100,-30 l200,-120 
                    l-200,200 
                    a200,200 0 0,1 0,-80"
        fill="url(#checkerPattern3)" 
        opacity=".5"
        stroke="blue" stroke-width="2"/>

  <path id="frontFace"
        d="m0,0 l0,-80 
                a200,200 0 0,0 100,50
                a200,200 0 0,0 0,80
                a200,200 0 0,1 -100,-50
                l0,-80"
        fill="url(#blueCircle)" 
        stroke="blue" stroke-width="2"/>

  <path id="frontFaceCB"
        d="m0,0 l0,-80 
                a200,200 0 0,0 100,50
                a200,200 0 0,0 0,80
                a200,200 0 0,1 -100,-50
                l0,-80"
        fill="url(#checkerPattern1)" 
        opacity=".5"
        stroke="blue" stroke-width="2"/>
</defs>

<g id="gc" transform="translate(50,200)" 
   filter="url(#turbFilter4)">  
   <use xlink:href="#topFace"       x="0"  y="0"/>
   <use xlink:href="#topFaceCB"     x="0"  y="0"/>
   <use xlink:href="#rightFace"     x="0"  y="0"/>
   <use xlink:href="#rightFaceCB"   x="0"  y="0"/>
   <use xlink:href="#frontFace"     x="0"  y="0"/>
   <use xlink:href="#frontFaceCB"   x="0"  y="0"/>
</g>
</svg>

