<?xml version="1.0" encoding="iso-8859-1"?>
<!DOCTYPE svg PUBLIC "-//W3C//DTD SVG 1.0//EN"
 "http://www.w3.org/TR/2001/REC-SVG-20010904/DTD/svg10.dtd">

<svg xmlns="http://www.w3.org/2000/svg" 
     xmlns:xlink="http://www.w3.org/1999/xlink" 
     width="100%" height="100%"> 
  <defs>
     <filter
        id="blurFilter1"
        filterUnits="objectBoundingBox"
        x="0" y="0" 
        width="100%" height="100%"> 
        <feGaussianBlur stdDeviation="4"/>
     </filter>
   
     <radialGradient id="blueCircle" 
                     gradientUnits="objectBoundingBox"
                     fx="30%" fy="30%">
       <stop offset="0%"   style="stop-color:#FFFFFF"/>
       <stop offset="40%"  style="stop-color:#0000AA"/>
       <stop offset="100%" style="stop-color:#000066"/>
     </radialGradient>
      
     <radialGradient id="shadeCircle" 
                     gradientUnits="objectBoundingBox"
                     fx="30%" fy="30%">
       <stop offset="0%"   style="stop-color:#BBBBBB"/>
       <stop offset="40%"  style="stop-color:#888888"/>
       <stop offset="100%" style="stop-color:#333333"/>
     </radialGradient>
      
     <ellipse id="whiteEllipse" 
              cx="0" cy="0" rx="60" ry="20" 
              style="fill:white"/>
      
     <ellipse id="3DShadeEllipse" 
              cx="0" cy="0" rx="40" ry="40" 
              style="fill:url(#shadeCircle)"/>
      
     <path id="3DShadeArc1" 
           d="m0,0 a65,65   0 0,0 120,0 
                   a165,165 0 0,1 -120,0" 
           style="fill:url(#shadeCircle)"/>
      
     <circle id="3DBlueCircle" cx="0" cy="0" r="160" 
             style="fill:url(#blueCircle)"/>

     <circle id="3DShadeCircle" cx="0" cy="0" r="160" 
             filter="url(#blurFilter1)"
             style="fill:url(#shadeCircle)"/>

     <path id="leftArc1"
           d="m0,0 l0,-200 a200,200 0 0,0 0,200"
           opacity=".6"
           stroke="white" stroke-width="1"
           style="fill:black"/>

     <path id="rightArc1"
           d="m0,0 l0,-200 a160,160 0 0,1 0,200"
           opacity=".6"
           stroke="white" stroke-width="1"
           style="fill:gray"/>
  </defs>

<g>
  <rect 
     filter="url(#blurFilter1)"
     style="fill:url(#checkerPatternNew)"
     x="0" y="0" width="800" height="500"/>
</g>

<g width="100%" height="100%"> 
   <use xlink:href="#3DShadeCircle"  x="300" y="180"/>
   <use xlink:href="#3DBlueCircle"   x="200" y="200"/>
   <use xlink:href="#3DShadeEllipse" x="240" y="160"/>
   <use xlink:href="#whiteEllipse"   x="200" y="55"/>
   <use xlink:href="#3DShadeArc1"    x="140" y="60"/>
   <use xlink:href="#leftArc1"       x="200" y="360"/>
   <use xlink:href="#rightArc1"      x="200" y="360"/>
</g>
</svg>

