<?xml version="1.0" encoding="iso-8859-1"?>
<!DOCTYPE svg PUBLIC "-//W3C//DTD SVG 20010904//EN" 
  "http://www.w3.org/TR/2001/REC-SVG-20010904/DTD/svg10.dtd">

<svg width="100%" height="100%"
     xmlns:xlink="http://www.w3.org/1999/xlink" 
     xmlns="http://www.w3.org/2000/svg">
<defs>
  <filter id="turbFilter4" in="SourceImage" 
           filterUnits="objectBoundingBox">
      <feTurbulence baseFrequency="0.05" numOctaves="0" 
                    result="turbulenceOut1"/> 
        <feDisplacementMap in="SourceGraphic" in2="turbulenceOut1" 
                           xChannelSelector="B" yChannelSelector="B"
                           scale="20"/> 
   </filter>

  <radialGradient id="blueCircle" 
                  gradientUnits="objectBoundingBox"
                  fx="70%" fy="70%">
    <stop offset="0%"   style="stop-color:#FFFFFF"/>
    <stop offset="40%"  style="stop-color:#0000AA"/>
    <stop offset="100%" style="stop-color:#000066"/>
  </radialGradient>

  <pattern id="checkerPattern1" 
           width="8" height="8"
           patternUnits="userSpaceOnUse">
     <rect fill="blue"
           x="0"  y="0" width="4" height="4"/> 
     <rect fill="red"
           x="4" y="0"  width="4" height="4"/> 
     <rect fill="red"
           x="0"  y="4" width="4" height="4"/> 
     <rect fill="blue"
           x="4" y="4"  width="4" height="4"/> 
  </pattern>

  <pattern id="checkerPattern2" 
           width="8" height="8"
           patternUnits="userSpaceOnUse">
     <rect fill="red"
           x="0"  y="0" width="4" height="4"/> 
     <rect fill="yellow"
           x="4" y="0"  width="4" height="4"/> 
     <rect fill="yellow"
           x="0"  y="4" width="4" height="4"/> 
     <rect fill="red"
           x="4" y="4"  width="4" height="4"/> 
  </pattern>

  <g id="boxShape">
    <path id="frontFace"
          d="m0,0 100,0 0,80 -100,0"
          fill="url(#checkerPattern1)"/> 

    <path id="topFace"
          d="m0,0 l100,0 60,-30 -100,0"
          fill="url(#blueCircle)"/> 

    <path id="rightFace"
          d="m100,0 l60,-30 0,80 -60,30"
          fill="url(#blueCircle)"/> 
  </g>

  <path id="ellipticArc1"
        d="m50,0 a150,150 0 0,1 70,-10
                 a150,150 0 0,1 -20,80
                 a150,150 0 0,1 -50,-70"
        fill="url(#blueCircle)"/> 

  <path id="ellipticArcCB1"
        d="m50,0 a150,150 0 0,1 70,-10
                 a150,150 0 0,1 -20,80
                 a150,150 0 0,1 -50,-70"
        opacity=".5"
        fill="url(#checkerPattern1)"/> 
</defs>

<g id="gc" transform="translate(20,100) scale(2,2)"
   filter="url(#turbFilter4)">   
  <use xlink:href="#boxShape"       x="0" y="0"/>
  <use xlink:href="#ellipticArc1"   x="0" y="0"/>
  <use xlink:href="#ellipticArcCB1" x="0" y="0"/>
</g>
</svg>

