<?xml version="1.0" encoding="iso-8859-1"?>
<!DOCTYPE svg PUBLIC "-//W3C//DTD SVG 1.0//EN"
 "http://www.w3.org/TR/2001/REC-SVG-20010904/DTD/svg10.dtd">

<svg xmlns="http://www.w3.org/2000/svg" 
     xmlns:xlink="http://www.w3.org/1999/xlink" 
     width="100%" height="100%"> 
  <defs>
     <filter
        id="blurFilter1"
        filterUnits="objectBoundingBox"
        x="0" y="0" 
        width="100%" height="100%"> 
        <feGaussianBlur stdDeviation="2"/>
     </filter>

     <radialGradient id="redCircle" 
                     gradientUnits="objectBoundingBox"
                     fx="30%" fy="30%">
      
       <stop offset="0%"   style="stop-color:#FFFFFF"/>
       <stop offset="40%"  style="stop-color:#AA0000"/>
       <stop offset="100%" style="stop-color:#660000"/>
     </radialGradient>
      
     <circle id="3DRedCircle" cx="0" cy="0" r="30" 
             style="fill:url(#redCircle)"/>

     <polygon id="verticalBar"
              points="0,0 0,100 20,100 20,0"
              style="fill:url(#redCircle)"/>

     <polygon id="triangleWedge"
              points="0,0 60,0 0,30"
              style="fill:url(#redCircle)"/>

     <ellipse id="noteShadow" cx="0" cy="0" rx="30" ry="8"
              filter="url(#blurFilter1)"
              style="fill:black"/>

     <pattern id="checkerPattern" 
              width="60" height="60"
              patternUnits="userSpaceOnUse">
   
        <rect fill="black"
              x="0"  y="0"  width="30" height="30"/> 
   
        <rect fill="yellow"
              x="30" y="0"  width="30" height="30"/> 
   
        <rect fill="yellow"
              x="0"  y="30" width="30" height="30"/> 
   
        <rect fill="black"
              x="30" y="30" width="30" height="30"/> 
     </pattern>

     <circle id="checkerCircle" cx="0" cy="0" r="30" 
             style="fill:url(#checkerPattern)"/>
  </defs>

<g transform="translate(10,50)" width="100%" height="100%"> 
   <use xlink:href="#verticalBar"   x="110" y="0"/>
   <use xlink:href="#triangleWedge" x="110" y="0"/>
   <use xlink:href="#triangleWedge" x="110" y="30"/>

   <use xlink:href="#3DRedCircle"   x="100" y="100"/>
   <use xlink:href="#checkerCircle" x="100" y="100" 
        opacity=".4"/>

   <use xlink:href="#noteShadow"    x="100" y="140"/>
</g>
</svg>

