<?xml version="1.0" encoding="iso-8859-1"?>
<!DOCTYPE svg PUBLIC "-//W3C//DTD SVG 20010904//EN" 
  "http://www.w3.org/TR/2001/REC-SVG-20010904/DTD/svg10.dtd">

<svg xmlns="http://www.w3.org/2000/svg" 
     xmlns:xlink="http://www.w3.org/1999/xlink" 
     width="100%" height="100%"> 
<defs>
  <filter id="turbFilter4" in="SourceImage" 
           filterUnits="objectBoundingBox">
      <feTurbulence baseFrequency="0.05" numOctaves="0" 
                    result="turbulenceOut1"/> 
        <feDisplacementMap in="SourceGraphic" in2="turbulenceOut1" 
                           xChannelSelector="B" yChannelSelector="B"
                           scale="20"/> 
   </filter>

  <radialGradient id="radialGradient1" 
                  gradientUnits="userSpaceOnUse"
                  cx="100" cy="50" r="100" 
                  fx="100" fy="50">
    <stop offset="0"    stop-color="white"/>
    <stop offset=".149" stop-color="red"/>
    <stop offset=".15"  stop-color="blue"/>
    <stop offset=".849" stop-color="red"/>
    <stop offset=".85"  stop-color="blue"/>
    <stop offset="1"    stop-color="black"/>
  </radialGradient>

  <radialGradient id="radialGradient2" 
                  gradientUnits="userSpaceOnUse"
                  cx="400" cy="200" r="300" 
                  fx="400" fy="200">
    <stop offset="0"    stop-color="yellow"/>
    <stop offset=".149" stop-color="red"/>
    <stop offset=".15"  stop-color="white"/>
    <stop offset=".549" stop-color="red"/>
    <stop offset=".55"  stop-color="white"/>
    <stop offset="1"    stop-color="black"/>
  </radialGradient>

  <radialGradient id="shadeCircle" 
                  gradientUnits="objectBoundingBox"
                  fx="30%" fy="30%">
    <stop offset="0%"   style="stop-color:#BBBBBB"/>
    <stop offset="40%"  style="stop-color:#888888"/>
    <stop offset="100%" style="stop-color:#333333"/>
  </radialGradient>

  <pattern id="checkerPattern1" 
           width="8" height="8"
           patternUnits="userSpaceOnUse">
     <rect fill="blue"
           x="0"  y="0" width="4" height="4"/> 
     <rect fill="red"
           x="4" y="0"  width="4" height="4"/> 
     <rect fill="red"
           x="0"  y="4" width="4" height="4"/> 
     <rect fill="blue"
           x="4" y="4"  width="4" height="4"/> 
  </pattern>

  <pattern id="checkerPattern2" 
           width="8" height="8"
           patternUnits="userSpaceOnUse">
     <rect fill="red"
           x="0"  y="0" width="4" height="4"/> 
     <rect fill="yellow"
           x="4" y="0"  width="4" height="4"/> 
     <rect fill="yellow"
           x="0"  y="4" width="4" height="4"/> 
     <rect fill="red"
           x="4" y="4"  width="4" height="4"/> 
  </pattern>

  <g id="shadowBox">
    <path id="frontFace"
          d="m0,0 100,0 0,80 -100,0"
          fill="url(#shadeCircle)"/> 

    <path id="frontFaceCB"
          d="m0,0 100,0 0,80 -100,0"
          opacity=".3"
          fill="url(#checkerPattern2)"/> 

    <path id="frontFaceRipple"
          d="m0,0 100,0 0,80 -100,0"
          opacity=".3"
          fill="url(#radialGradient1)"/> 

    <path id="topFace"
          d="m0,0 l100,0 60,-30 -100,0"
          fill="url(#shadeCircle)"/> 

    <path id="topFaceCB"
          d="m0,0 l100,0 60,-30 -100,0"
          opacity=".3"
          fill="url(#checkerPattern1)"/> 

    <path id="rightFace"
          d="m100,0 l60,-30 0,80 -60,30"
          fill="url(#shadeCircle)"/> 
  </g>
</defs>

<g id="gc" transform="translate(80,120) scale(2,2)"
   filter="url(#turbFilter4)">   
  <use xlink:href="#shadowBox" x="0" y="0"/>
</g>
</svg>

