<?xml version="1.0" encoding="iso-8859-1"?>
<!DOCTYPE svg PUBLIC "-//W3C//DTD SVG 1.0//EN"
 "http://www.w3.org/TR/2001/REC-SVG-20010904/DTD/svg10.dtd">

<svg xmlns="http://www.w3.org/2000/svg" 
     xmlns:xlink="http://www.w3.org/1999/xlink" 
     width="100%" height="100%"> 
 <defs>
  <filter id="turbFilter4" in="SourceImage" 
           filterUnits="objectBoundingBox">
      <feTurbulence baseFrequency="0.05" numOctaves="0" 
                    result="turbulenceOut1"/> 
        <feDisplacementMap in="SourceGraphic" in2="turbulenceOut1" 
                           xChannelSelector="B" yChannelSelector="B"
                           scale="20"/> 
   </filter>

     <radialGradient id="redCircle" 
                     gradientUnits="objectBoundingBox"
                     fx="30%" fy="30%">
       <stop offset="0%"   style="stop-color:#FFFFFF"/>
       <stop offset="40%"  style="stop-color:#AA0000"/>
       <stop offset="100%" style="stop-color:#660000"/>
     </radialGradient>
      
     <radialGradient id="blueCircle" 
                     gradientUnits="objectBoundingBox"
                     fx="30%" fy="30%">
       <stop offset="0%"   style="stop-color:#FFFFFF"/>
       <stop offset="40%"  style="stop-color:#0000AA"/>
       <stop offset="100%" style="stop-color:#000066"/>
     </radialGradient>
      
     <circle id="3DBlueCircle" cx="0" cy="0" r="80" 
             style="fill:url(#blueCircle)"/>

     <path id="3DBlueArc" 
           d="m0,0 a80,80 0 0,1 0,160"
           style="fill:url(#blueCircle)"/>

     <path id="3DRedArc" 
           d="m0,0 a80,80 0 0,0 0,160"
           style="fill:url(#redCircle)"/>

     <g id="middleArc"> 
       <path id="leftArc" 
             d="m0,0 a280,280 0 0,0 0,160"
             style="fill:url(#blueCircle)"/>
       <path id="rightArc" 
             d="m0,0 a280,280 0 0,1 0,160"
             style="fill:url(#redCircle)"/>
     </g>

     <pattern id="checkerPattern" 
              width="10" height="10"
              patternUnits="userSpaceOnUse">
        <rect fill="yellow"
              x="0"  y="0"  width="5" height="5"/> 
        <rect fill="black"
              x="5" y="0"  width="5" height="5"/> 
        <rect fill="black"
              x="0"  y="5" width="5" height="5"/> 
        <rect fill="yellow"
              x="5" y="5" width="5" height="5"/> 
     </pattern>
   
  </defs>

<g id="gc" transform="translate(10,10)" 
   filter="url(#turbFilter4)">  
   <use xlink:href="#3DBlueArc"    x="100" y="20"/>
   <use xlink:href="#3DRedArc"     x="100" y="20"/>
   <use xlink:href="#3DBlueArc"    x="300" y="20"/>
   <use xlink:href="#3DRedArc"     x="300" y="20"/>
   <use xlink:href="#middleArc"    x="300" y="20"/>
</g>
</svg>

